<svg width="71" height="72" viewBox="0 0 71 72" fill="none" xmlns="http://www.w3.org/2000/svg">
<path fill-rule="evenodd" clip-rule="evenodd" d="M43.221 65.033H28.0743V41.21H43.221V65.033ZM40.4397 44.134H30.8547V62.11H40.4397V44.134Z" fill="#81B3D2"/>
<path fill-rule="evenodd" clip-rule="evenodd" d="M68.8899 39.253L70.8552 37.185L61.4756 27.32V0H48.4003V13.567L35.5 0L0.143921 37.185L2.11015 39.253L9.52444 31.458V69.076H5.79741V72H66.2657V69.076H61.4766V31.458L68.8899 39.253ZM58.6953 69.076H12.3057V28.534L35.5 4.149L58.6953 28.534V69.076ZM51.1806 16.492L58.6953 24.394V2.924H51.1806V16.492Z" fill="#81B3D2"/>
<path fill-rule="evenodd" clip-rule="evenodd" d="M35.6477 34.7929C31.596 34.7929 28.3111 31.3409 28.3111 27.0799C28.3111 22.8209 31.595 19.3669 35.6477 19.3669C39.6985 19.3669 42.9844 22.8209 42.9844 27.0799C42.9844 31.3409 39.6985 34.7929 35.6477 34.7929ZM40.3517 27.0799C40.3517 24.3489 38.2454 22.1349 35.6477 22.1349C33.0491 22.1349 30.9428 24.3489 30.9428 27.0799C30.9428 29.8119 33.0482 32.0279 35.6477 32.0279C38.2454 32.0279 40.3517 29.8119 40.3517 27.0799ZM16.1511 41.2099H18.9911V45.1289H16.1511V41.2099ZM24.6124 41.2099H21.7724V45.1289H24.6124V41.2099ZM16.1511 47.1819H18.9911V51.1009H16.1511V47.1819ZM24.6124 47.1819H21.7724V51.1009H24.6124V47.1819ZM46.3848 41.2099H49.2248V45.1289H46.3848V41.2099ZM54.8461 41.2099H52.0061V45.1289H54.8461V41.2099ZM46.3848 47.1819H49.2248V51.1009H46.3848V47.1819ZM54.8461 47.1819H52.0061V51.1009H54.8461V47.1819Z" fill="#81B3D2"/>
</svg>
